<svg xmlns="http://www.w3.org/2000/svg" width="320" height="517" viewBox="0 0 320 517"><rect width="100%" height="100%" fill="#0A0A09"/><text x="16" y="27.73" fill="#6B6963" font-family="sans-serif" font-size="14.3" font-weight="600" xml:space="preserve">DUMBBELL REVERSE LUNGE</text><text x="16" y="50.10" fill="#A9A7A0" font-family="sans-serif" font-size="15.6" xml:space="preserve">Position 4 of 6 · neutral ·</text><text x="16" y="71.16" fill="#A9A7A0" font-family="sans-serif" font-size="15.6" xml:space="preserve">app240 · text 130%</text><g transform="translate(60.00,89.43)"><rect width="200.00" height="240.00" fill="#141412"/><rect x="0" y="227.25" width="200.00" height="1" fill="#262623"/><rect x="54.58" y="106.35" width="31.25" height="10.56" rx="5.28" fill="#6B6963" opacity="0.9" transform="rotate(90 70.21 111.63)"/><rect x="55.21" y="137.93" width="30" height="8.64" rx="4.32" fill="#6B6963" opacity="0.9" transform="rotate(90 70.21 142.25)"/><rect x="46.46" y="176.73" width="55.62" height="14.16" rx="7.08" fill="#6B6963" opacity="0.9" transform="rotate(90.21 74.27 183.81)"/><rect x="18.65" y="208.59" width="55.63" height="10.8" rx="5.4" fill="#6B6963" opacity="0.9" transform="rotate(175.13 46.46 213.99)"/><rect x="16.96" y="215.53" width="13.5" height="10.8" rx="5.4" fill="#6B6963" opacity="0.9" transform="rotate(42.77 23.71 220.93)"/><rect x="57.71" y="154.5" width="25" height="5.5" rx="2.75" fill="#6B6963" opacity="0.9" transform="rotate(180 70.21 157.25)"/><rect x="76.96" y="151.5" width="11.5" height="11.5" rx="5.75" fill="#6B6963" opacity="0.9" transform="rotate(90 82.71 157.25)"/><rect x="51.96" y="151.5" width="11.5" height="11.5" rx="5.75" fill="#6B6963" opacity="0.9" transform="rotate(90 57.71 157.25)"/><rect x="70.21" y="94.5" width="29.58" height="3" rx="1.5" fill="#6B6963" opacity="1" transform="rotate(180 85 96)"/><rect x="70.26" y="96.38" width="29.49" height="3" rx="1.5" fill="#6B6963" opacity="1" transform="rotate(180 85 97.88)"/><rect x="70.3" y="98.25" width="29.4" height="3" rx="1.5" fill="#6B6963" opacity="1" transform="rotate(180 85 99.75)"/><rect x="70.35" y="100.13" width="29.3" height="3" rx="1.5" fill="#6B6963" opacity="1" transform="rotate(180 85 101.63)"/><rect x="70.39" y="102" width="29.21" height="3" rx="1.5" fill="#6B6963" opacity="1" transform="rotate(180 85 103.5)"/><rect x="70.44" y="103.88" width="29.12" height="3" rx="1.5" fill="#6B6963" opacity="1" transform="rotate(180 85 105.38)"/><rect x="70.49" y="105.75" width="29.03" height="3" rx="1.5" fill="#6B6963" opacity="1" transform="rotate(180 85 107.25)"/><rect x="70.53" y="107.63" width="28.93" height="3" rx="1.5" fill="#6B6963" opacity="1" transform="rotate(180 85 109.13)"/><rect x="70.58" y="109.5" width="28.84" height="3" rx="1.5" fill="#6B6963" opacity="1" transform="rotate(180 85 111)"/><rect x="70.63" y="111.38" width="28.75" height="3" rx="1.5" fill="#6B6963" opacity="1" transform="rotate(180 85 112.88)"/><rect x="70.67" y="113.25" width="28.66" height="3" rx="1.5" fill="#6B6963" opacity="1" transform="rotate(180 85 114.75)"/><rect x="70.72" y="115.13" width="28.56" height="3" rx="1.5" fill="#6B6963" opacity="1" transform="rotate(180 85 116.63)"/><rect x="70.76" y="117" width="28.47" height="3" rx="1.5" fill="#6B6963" opacity="1" transform="rotate(180 85 118.5)"/><rect x="70.81" y="118.88" width="28.38" height="3" rx="1.5" fill="#6B6963" opacity="1" transform="rotate(180 85 120.38)"/><rect x="70.86" y="120.75" width="28.29" height="3" rx="1.5" fill="#6B6963" opacity="1" transform="rotate(180 85 122.25)"/><rect x="70.9" y="122.63" width="28.19" height="3" rx="1.5" fill="#6B6963" opacity="1" transform="rotate(180 85 124.13)"/><rect x="70.95" y="124.5" width="28.1" height="3" rx="1.5" fill="#6B6963" opacity="1" transform="rotate(180 85 126)"/><rect x="71" y="126.38" width="28.01" height="3" rx="1.5" fill="#6B6963" opacity="1" transform="rotate(180 85 127.88)"/><rect x="71.04" y="128.25" width="27.92" height="3" rx="1.5" fill="#6B6963" opacity="1" transform="rotate(180 85 129.75)"/><rect x="71.09" y="130.13" width="27.82" height="3" rx="1.5" fill="#6B6963" opacity="1" transform="rotate(180 85 131.63)"/><rect x="71.13" y="132" width="27.73" height="3" rx="1.5" fill="#6B6963" opacity="1" transform="rotate(180 85 133.5)"/><rect x="71.18" y="133.88" width="27.64" height="3" rx="1.5" fill="#6B6963" opacity="1" transform="rotate(180 85 135.38)"/><rect x="71.23" y="135.75" width="27.55" height="3" rx="1.5" fill="#6B6963" opacity="1" transform="rotate(180 85 137.25)"/><rect x="71.27" y="137.63" width="27.45" height="3" rx="1.5" fill="#6B6963" opacity="1" transform="rotate(180 85 139.13)"/><rect x="71.32" y="139.5" width="27.36" height="3" rx="1.5" fill="#6B6963" opacity="1" transform="rotate(180 85 141)"/><rect x="71.37" y="141.38" width="27.27" height="3" rx="1.5" fill="#6B6963" opacity="1" transform="rotate(180 85 142.88)"/><rect x="71.41" y="143.25" width="27.18" height="3" rx="1.5" fill="#6B6963" opacity="1" transform="rotate(180 85 144.75)"/><rect x="71.46" y="145.13" width="27.08" height="3" rx="1.5" fill="#6B6963" opacity="1" transform="rotate(180 85 146.63)"/><rect x="71.5" y="147" width="26.99" height="3" rx="1.5" fill="#6B6963" opacity="1" transform="rotate(180 85 148.5)"/><rect x="71.55" y="148.88" width="26.9" height="3" rx="1.5" fill="#6B6963" opacity="1" transform="rotate(180 85 150.38)"/><rect x="71.6" y="150.75" width="26.81" height="3" rx="1.5" fill="#6B6963" opacity="1" transform="rotate(180 85 152.25)"/><rect x="71.64" y="152.63" width="26.71" height="3" rx="1.5" fill="#6B6963" opacity="1" transform="rotate(180 85 154.13)"/><rect x="71.69" y="154.5" width="26.62" height="3" rx="1.5" fill="#6B6963" opacity="1" transform="rotate(180 85 156)"/><rect x="84.51" y="154.13" width="55.63" height="14.16" rx="7.08" fill="#F7F6F3" opacity="1" transform="rotate(10.8 112.32 161.21)"/><rect x="109.51" y="188.73" width="55.63" height="10.8" rx="5.4" fill="#F7F6F3" opacity="1" transform="rotate(94.79 137.32 194.13)"/><rect x="135" y="216.45" width="13.5" height="10.8" rx="5.4" fill="#F7F6F3" opacity="1" transform="rotate(0 141.75 221.85)"/><rect x="84.16" y="106.35" width="31.25" height="10.56" rx="5.28" fill="#F7F6F3" opacity="1" transform="rotate(90 99.79 111.63)"/><rect x="84.79" y="137.93" width="30" height="8.64" rx="4.32" fill="#F7F6F3" opacity="1" transform="rotate(90 99.79 142.25)"/><rect x="73.15" y="80.91" width="23.7" height="8.88" rx="4.44" fill="#F7F6F3" opacity="1" transform="rotate(-90 85 85.35)"/><circle cx="85" cy="73.5" r="12.38" fill="#141412" stroke="#F7F6F3" stroke-width="6.25" opacity="1"/><rect x="87.29" y="154.5" width="25" height="5.5" rx="2.75" fill="#F7F6F3" opacity="1" transform="rotate(180 99.79 157.25)"/><rect x="106.54" y="151.5" width="11.5" height="11.5" rx="5.75" fill="#A9A7A0" opacity="1" transform="rotate(90 112.29 157.25)"/><rect x="81.54" y="151.5" width="11.5" height="11.5" rx="5.75" fill="#A9A7A0" opacity="1" transform="rotate(90 87.29 157.25)"/></g><text x="16" y="356.35" fill="#F7F6F3" font-family="sans-serif" font-size="18.2" xml:space="preserve">Keep the front heel</text><text x="16" y="380.92" fill="#F7F6F3" font-family="sans-serif" font-size="18.2" xml:space="preserve">down; the front leg</text><text x="16" y="405.49" fill="#F7F6F3" font-family="sans-serif" font-size="18.2" xml:space="preserve">works while the rear</text><text x="16" y="430.06" fill="#F7F6F3" font-family="sans-serif" font-size="18.2" xml:space="preserve">toes support balance.</text><text x="16" y="458.37" fill="#6B6963" font-family="sans-serif" font-size="13" xml:space="preserve">Headless librsvg approximation of</text><text x="16" y="475.92" fill="#6B6963" font-family="sans-serif" font-size="13" xml:space="preserve">production layout primitives — not</text><text x="16" y="493.47" fill="#6B6963" font-family="sans-serif" font-size="13" xml:space="preserve">native-device evidence.</text></svg>