<svg xmlns="http://www.w3.org/2000/svg" width="1920" height="622" viewBox="0 0 1920 622"><rect width="100%" height="100%" fill="#0A0A09"/><g transform="translate(0,0)"><rect width="100%" height="100%" fill="#0A0A09"/><text x="16" y="27.73" fill="#6B6963" font-family="sans-serif" font-size="14.3" font-weight="600" xml:space="preserve">DUMBBELL REVERSE LUNGE</text><text x="16" y="50.10" fill="#A9A7A0" font-family="sans-serif" font-size="15.6" xml:space="preserve">Position 1 of 6 · neutral ·</text><text x="16" y="71.16" fill="#A9A7A0" font-family="sans-serif" font-size="15.6" xml:space="preserve">320px · text 130%</text><g transform="translate(16.00,89.43)"><rect width="288.00" height="345.60" fill="#141412"/><rect x="0" y="327.24" width="288.00" height="1" fill="#262623"/><rect x="150.6" y="87.76" width="45" height="15.21" rx="7.6" fill="#6B6963" opacity="0.9" transform="rotate(90 173.1 95.36)"/><rect x="151.5" y="133.24" width="43.2" height="12.44" rx="6.22" fill="#6B6963" opacity="0.9" transform="rotate(90 173.1 139.46)"/><rect x="139.05" y="189.12" width="80.1" height="20.39" rx="10.2" fill="#6B6963" opacity="0.9" transform="rotate(90 179.1 199.31)"/><rect x="139.05" y="271.64" width="80.1" height="15.55" rx="7.78" fill="#6B6963" opacity="0.9" transform="rotate(90 179.1 279.41)"/><rect x="179.1" y="311.69" width="19.44" height="15.55" rx="7.78" fill="#6B6963" opacity="0.9" transform="rotate(0 188.82 319.46)"/><rect x="155.1" y="157.1" width="36" height="7.92" rx="3.96" fill="#6B6963" opacity="0.9" transform="rotate(180 173.1 161.06)"/><rect x="182.82" y="152.78" width="16.56" height="16.56" rx="8.28" fill="#6B6963" opacity="0.9" transform="rotate(90 191.1 161.06)"/><rect x="146.82" y="152.78" width="16.56" height="16.56" rx="8.28" fill="#6B6963" opacity="0.9" transform="rotate(90 155.1 161.06)"/><rect x="173.1" y="70.7" width="42.6" height="4.32" rx="2.16" fill="#6B6963" opacity="1" transform="rotate(180 194.4 72.86)"/><rect x="173.17" y="73.4" width="42.46" height="4.32" rx="2.16" fill="#6B6963" opacity="1" transform="rotate(180 194.4 75.56)"/><rect x="173.24" y="76.1" width="42.33" height="4.32" rx="2.16" fill="#6B6963" opacity="1" transform="rotate(180 194.4 78.26)"/><rect x="173.3" y="78.8" width="42.2" height="4.32" rx="2.16" fill="#6B6963" opacity="1" transform="rotate(180 194.4 80.96)"/><rect x="173.37" y="81.5" width="42.06" height="4.32" rx="2.16" fill="#6B6963" opacity="1" transform="rotate(180 194.4 83.66)"/><rect x="173.44" y="84.2" width="41.93" height="4.32" rx="2.16" fill="#6B6963" opacity="1" transform="rotate(180 194.4 86.36)"/><rect x="173.5" y="86.9" width="41.8" height="4.32" rx="2.16" fill="#6B6963" opacity="1" transform="rotate(180 194.4 89.06)"/><rect x="173.57" y="89.6" width="41.66" height="4.32" rx="2.16" fill="#6B6963" opacity="1" transform="rotate(180 194.4 91.76)"/><rect x="173.63" y="92.3" width="41.53" height="4.32" rx="2.16" fill="#6B6963" opacity="1" transform="rotate(180 194.4 94.46)"/><rect x="173.7" y="95" width="41.4" height="4.32" rx="2.16" fill="#6B6963" opacity="1" transform="rotate(180 194.4 97.16)"/><rect x="173.77" y="97.7" width="41.26" height="4.32" rx="2.16" fill="#6B6963" opacity="1" transform="rotate(180 194.4 99.86)"/><rect x="173.83" y="100.4" width="41.13" height="4.32" rx="2.16" fill="#6B6963" opacity="1" transform="rotate(180 194.4 102.56)"/><rect x="173.9" y="103.1" width="41" height="4.32" rx="2.16" fill="#6B6963" opacity="1" transform="rotate(180 194.4 105.26)"/><rect x="173.97" y="105.8" width="40.86" height="4.32" rx="2.16" fill="#6B6963" opacity="1" transform="rotate(180 194.4 107.96)"/><rect x="174.03" y="108.5" width="40.73" height="4.32" rx="2.16" fill="#6B6963" opacity="1" transform="rotate(180 194.4 110.66)"/><rect x="174.1" y="111.2" width="40.6" height="4.32" rx="2.16" fill="#6B6963" opacity="1" transform="rotate(180 194.4 113.36)"/><rect x="174.17" y="113.9" width="40.47" height="4.32" rx="2.16" fill="#6B6963" opacity="1" transform="rotate(180 194.4 116.06)"/><rect x="174.23" y="116.6" width="40.33" height="4.32" rx="2.16" fill="#6B6963" opacity="1" transform="rotate(180 194.4 118.76)"/><rect x="174.3" y="119.3" width="40.2" height="4.32" rx="2.16" fill="#6B6963" opacity="1" transform="rotate(180 194.4 121.46)"/><rect x="174.37" y="122" width="40.07" height="4.32" rx="2.16" fill="#6B6963" opacity="1" transform="rotate(180 194.4 124.16)"/><rect x="174.43" y="124.7" width="39.93" height="4.32" rx="2.16" fill="#6B6963" opacity="1" transform="rotate(180 194.4 126.86)"/><rect x="174.5" y="127.4" width="39.8" height="4.32" rx="2.16" fill="#6B6963" opacity="1" transform="rotate(180 194.4 129.56)"/><rect x="174.57" y="130.1" width="39.67" height="4.32" rx="2.16" fill="#6B6963" opacity="1" transform="rotate(180 194.4 132.26)"/><rect x="174.63" y="132.8" width="39.53" height="4.32" rx="2.16" fill="#6B6963" opacity="1" transform="rotate(180 194.4 134.96)"/><rect x="174.7" y="135.5" width="39.4" height="4.32" rx="2.16" fill="#6B6963" opacity="1" transform="rotate(180 194.4 137.66)"/><rect x="174.77" y="138.2" width="39.27" height="4.32" rx="2.16" fill="#6B6963" opacity="1" transform="rotate(180 194.4 140.36)"/><rect x="174.83" y="140.9" width="39.13" height="4.32" rx="2.16" fill="#6B6963" opacity="1" transform="rotate(180 194.4 143.06)"/><rect x="174.9" y="143.6" width="39" height="4.32" rx="2.16" fill="#6B6963" opacity="1" transform="rotate(180 194.4 145.76)"/><rect x="174.97" y="146.3" width="38.87" height="4.32" rx="2.16" fill="#6B6963" opacity="1" transform="rotate(180 194.4 148.46)"/><rect x="175.03" y="149" width="38.74" height="4.32" rx="2.16" fill="#6B6963" opacity="1" transform="rotate(180 194.4 151.16)"/><rect x="175.1" y="151.7" width="38.6" height="4.32" rx="2.16" fill="#6B6963" opacity="1" transform="rotate(180 194.4 153.86)"/><rect x="175.17" y="154.4" width="38.47" height="4.32" rx="2.16" fill="#6B6963" opacity="1" transform="rotate(180 194.4 156.56)"/><rect x="175.23" y="157.1" width="38.34" height="4.32" rx="2.16" fill="#6B6963" opacity="1" transform="rotate(180 194.4 159.26)"/><rect x="154.35" y="189.12" width="80.1" height="20.39" rx="10.2" fill="#F7F6F3" opacity="1" transform="rotate(90 194.4 199.31)"/><rect x="154.35" y="271.64" width="80.1" height="15.55" rx="7.78" fill="#F7F6F3" opacity="1" transform="rotate(90 194.4 279.41)"/><rect x="194.4" y="311.69" width="19.44" height="15.55" rx="7.78" fill="#F7F6F3" opacity="1" transform="rotate(0 204.12 319.46)"/><rect x="193.2" y="87.76" width="45" height="15.21" rx="7.6" fill="#F7F6F3" opacity="1" transform="rotate(90 215.7 95.36)"/><rect x="194.1" y="133.24" width="43.2" height="12.44" rx="6.22" fill="#F7F6F3" opacity="1" transform="rotate(90 215.7 139.46)"/><rect x="177.34" y="51.13" width="34.13" height="12.79" rx="6.39" fill="#F7F6F3" opacity="1" transform="rotate(-90 194.4 57.53)"/><circle cx="194.4" cy="40.46" r="17.82" fill="#141412" stroke="#F7F6F3" stroke-width="9" opacity="1"/><rect x="197.7" y="157.1" width="36" height="7.92" rx="3.96" fill="#F7F6F3" opacity="1" transform="rotate(180 215.7 161.06)"/><rect x="225.42" y="152.78" width="16.56" height="16.56" rx="8.28" fill="#A9A7A0" opacity="1" transform="rotate(90 233.7 161.06)"/><rect x="189.42" y="152.78" width="16.56" height="16.56" rx="8.28" fill="#A9A7A0" opacity="1" transform="rotate(90 197.7 161.06)"/></g><text x="16" y="461.95" fill="#F7F6F3" font-family="sans-serif" font-size="18.2" xml:space="preserve">Stand tall with a</text><text x="16" y="486.52" fill="#F7F6F3" font-family="sans-serif" font-size="18.2" xml:space="preserve">dumbbell in each hand</text><text x="16" y="511.09" fill="#F7F6F3" font-family="sans-serif" font-size="18.2" xml:space="preserve">and both feet on the</text><text x="16" y="535.66" fill="#F7F6F3" font-family="sans-serif" font-size="18.2" xml:space="preserve">floor.</text><text x="16" y="563.97" fill="#6B6963" font-family="sans-serif" font-size="13" xml:space="preserve">Headless librsvg approximation of</text><text x="16" y="581.52" fill="#6B6963" font-family="sans-serif" font-size="13" xml:space="preserve">production layout primitives — not</text><text x="16" y="599.07" fill="#6B6963" font-family="sans-serif" font-size="13" xml:space="preserve">native-device evidence.</text></g><g transform="translate(320,0)"><rect width="100%" height="100%" fill="#0A0A09"/><text x="16" y="27.73" fill="#6B6963" font-family="sans-serif" font-size="14.3" font-weight="600" xml:space="preserve">DUMBBELL REVERSE LUNGE</text><text x="16" y="50.10" fill="#A9A7A0" font-family="sans-serif" font-size="15.6" xml:space="preserve">Position 2 of 6 · neutral ·</text><text x="16" y="71.16" fill="#A9A7A0" font-family="sans-serif" font-size="15.6" xml:space="preserve">320px · text 130%</text><g transform="translate(16.00,89.43)"><rect width="288.00" height="345.60" fill="#141412"/><rect x="0" y="327.24" width="288.00" height="1" fill="#262623"/><rect x="78.6" y="115.7" width="45" height="15.21" rx="7.6" fill="#6B6963" opacity="0.9" transform="rotate(90 101.1 123.3)"/><rect x="79.5" y="161.18" width="43.2" height="12.44" rx="6.22" fill="#6B6963" opacity="0.9" transform="rotate(90 101.1 167.4)"/><rect x="59.96" y="216.42" width="80.1" height="20.39" rx="10.2" fill="#6B6963" opacity="0.9" transform="rotate(100.2 100.01 226.62)"/><rect x="19.91" y="281.01" width="80.1" height="15.55" rx="7.78" fill="#6B6963" opacity="0.9" transform="rotate(145.38 59.96 288.79)"/><rect x="24.42" y="310.37" width="19.44" height="15.55" rx="7.78" fill="#6B6963" opacity="0.9" transform="rotate(42.77 34.14 318.14)"/><rect x="83.1" y="185.04" width="36" height="7.92" rx="3.96" fill="#6B6963" opacity="0.9" transform="rotate(180 101.1 189)"/><rect x="110.82" y="180.72" width="16.56" height="16.56" rx="8.28" fill="#6B6963" opacity="0.9" transform="rotate(90 119.1 189)"/><rect x="74.82" y="180.72" width="16.56" height="16.56" rx="8.28" fill="#6B6963" opacity="0.9" transform="rotate(90 83.1 189)"/><rect x="101.1" y="98.64" width="42.6" height="4.32" rx="2.16" fill="#6B6963" opacity="1" transform="rotate(180 122.4 100.8)"/><rect x="101.17" y="101.34" width="42.46" height="4.32" rx="2.16" fill="#6B6963" opacity="1" transform="rotate(180 122.4 103.5)"/><rect x="101.24" y="104.04" width="42.33" height="4.32" rx="2.16" fill="#6B6963" opacity="1" transform="rotate(180 122.4 106.2)"/><rect x="101.3" y="106.74" width="42.2" height="4.32" rx="2.16" fill="#6B6963" opacity="1" transform="rotate(180 122.4 108.9)"/><rect x="101.37" y="109.44" width="42.06" height="4.32" rx="2.16" fill="#6B6963" opacity="1" transform="rotate(180 122.4 111.6)"/><rect x="101.44" y="112.14" width="41.93" height="4.32" rx="2.16" fill="#6B6963" opacity="1" transform="rotate(180 122.4 114.3)"/><rect x="101.5" y="114.84" width="41.8" height="4.32" rx="2.16" fill="#6B6963" opacity="1" transform="rotate(180 122.4 117)"/><rect x="101.57" y="117.54" width="41.66" height="4.32" rx="2.16" fill="#6B6963" opacity="1" transform="rotate(180 122.4 119.7)"/><rect x="101.63" y="120.24" width="41.53" height="4.32" rx="2.16" fill="#6B6963" opacity="1" transform="rotate(180 122.4 122.4)"/><rect x="101.7" y="122.94" width="41.4" height="4.32" rx="2.16" fill="#6B6963" opacity="1" transform="rotate(180 122.4 125.1)"/><rect x="101.77" y="125.64" width="41.26" height="4.32" rx="2.16" fill="#6B6963" opacity="1" transform="rotate(180 122.4 127.8)"/><rect x="101.83" y="128.34" width="41.13" height="4.32" rx="2.16" fill="#6B6963" opacity="1" transform="rotate(180 122.4 130.5)"/><rect x="101.9" y="131.04" width="41" height="4.32" rx="2.16" fill="#6B6963" opacity="1" transform="rotate(180 122.4 133.2)"/><rect x="101.97" y="133.74" width="40.86" height="4.32" rx="2.16" fill="#6B6963" opacity="1" transform="rotate(180 122.4 135.9)"/><rect x="102.03" y="136.44" width="40.73" height="4.32" rx="2.16" fill="#6B6963" opacity="1" transform="rotate(180 122.4 138.6)"/><rect x="102.1" y="139.14" width="40.6" height="4.32" rx="2.16" fill="#6B6963" opacity="1" transform="rotate(180 122.4 141.3)"/><rect x="102.17" y="141.84" width="40.47" height="4.32" rx="2.16" fill="#6B6963" opacity="1" transform="rotate(180 122.4 144)"/><rect x="102.23" y="144.54" width="40.33" height="4.32" rx="2.16" fill="#6B6963" opacity="1" transform="rotate(180 122.4 146.7)"/><rect x="102.3" y="147.24" width="40.2" height="4.32" rx="2.16" fill="#6B6963" opacity="1" transform="rotate(180 122.4 149.4)"/><rect x="102.37" y="149.94" width="40.07" height="4.32" rx="2.16" fill="#6B6963" opacity="1" transform="rotate(180 122.4 152.1)"/><rect x="102.43" y="152.64" width="39.93" height="4.32" rx="2.16" fill="#6B6963" opacity="1" transform="rotate(180 122.4 154.8)"/><rect x="102.5" y="155.34" width="39.8" height="4.32" rx="2.16" fill="#6B6963" opacity="1" transform="rotate(180 122.4 157.5)"/><rect x="102.57" y="158.04" width="39.67" height="4.32" rx="2.16" fill="#6B6963" opacity="1" transform="rotate(180 122.4 160.2)"/><rect x="102.63" y="160.74" width="39.53" height="4.32" rx="2.16" fill="#6B6963" opacity="1" transform="rotate(180 122.4 162.9)"/><rect x="102.7" y="163.44" width="39.4" height="4.32" rx="2.16" fill="#6B6963" opacity="1" transform="rotate(180 122.4 165.6)"/><rect x="102.77" y="166.14" width="39.27" height="4.32" rx="2.16" fill="#6B6963" opacity="1" transform="rotate(180 122.4 168.3)"/><rect x="102.83" y="168.84" width="39.13" height="4.32" rx="2.16" fill="#6B6963" opacity="1" transform="rotate(180 122.4 171)"/><rect x="102.9" y="171.54" width="39" height="4.32" rx="2.16" fill="#6B6963" opacity="1" transform="rotate(180 122.4 173.7)"/><rect x="102.97" y="174.24" width="38.87" height="4.32" rx="2.16" fill="#6B6963" opacity="1" transform="rotate(180 122.4 176.4)"/><rect x="103.03" y="176.94" width="38.74" height="4.32" rx="2.16" fill="#6B6963" opacity="1" transform="rotate(180 122.4 179.1)"/><rect x="103.1" y="179.64" width="38.6" height="4.32" rx="2.16" fill="#6B6963" opacity="1" transform="rotate(180 122.4 181.8)"/><rect x="103.17" y="182.34" width="38.47" height="4.32" rx="2.16" fill="#6B6963" opacity="1" transform="rotate(180 122.4 184.5)"/><rect x="103.23" y="185.04" width="38.34" height="4.32" rx="2.16" fill="#6B6963" opacity="1" transform="rotate(180 122.4 187.2)"/><rect x="112.35" y="203.54" width="80.1" height="20.39" rx="10.2" fill="#F7F6F3" opacity="1" transform="rotate(41.49 152.4 213.73)"/><rect x="148.35" y="272.09" width="80.1" height="15.55" rx="7.78" fill="#F7F6F3" opacity="1" transform="rotate(81.38 188.4 279.87)"/><rect x="194.4" y="311.69" width="19.44" height="15.55" rx="7.78" fill="#F7F6F3" opacity="1" transform="rotate(0 204.12 319.46)"/><rect x="121.2" y="115.7" width="45" height="15.21" rx="7.6" fill="#F7F6F3" opacity="1" transform="rotate(90 143.7 123.3)"/><rect x="122.1" y="161.18" width="43.2" height="12.44" rx="6.22" fill="#F7F6F3" opacity="1" transform="rotate(90 143.7 167.4)"/><rect x="105.34" y="79.07" width="34.13" height="12.79" rx="6.39" fill="#F7F6F3" opacity="1" transform="rotate(-90 122.4 85.46)"/><circle cx="122.4" cy="68.4" r="17.82" fill="#141412" stroke="#F7F6F3" stroke-width="9" opacity="1"/><rect x="125.7" y="185.04" width="36" height="7.92" rx="3.96" fill="#F7F6F3" opacity="1" transform="rotate(180 143.7 189)"/><rect x="153.42" y="180.72" width="16.56" height="16.56" rx="8.28" fill="#A9A7A0" opacity="1" transform="rotate(90 161.7 189)"/><rect x="117.42" y="180.72" width="16.56" height="16.56" rx="8.28" fill="#A9A7A0" opacity="1" transform="rotate(90 125.7 189)"/></g><text x="16" y="461.95" fill="#F7F6F3" font-family="sans-serif" font-size="18.2" xml:space="preserve">Step the rear foot back</text><text x="16" y="486.52" fill="#F7F6F3" font-family="sans-serif" font-size="18.2" xml:space="preserve">softly; keep the whole</text><text x="16" y="511.09" fill="#F7F6F3" font-family="sans-serif" font-size="18.2" xml:space="preserve">front foot planted.</text><text x="16" y="539.39" fill="#6B6963" font-family="sans-serif" font-size="13" xml:space="preserve">Headless librsvg approximation of</text><text x="16" y="556.95" fill="#6B6963" font-family="sans-serif" font-size="13" xml:space="preserve">production layout primitives — not</text><text x="16" y="574.50" fill="#6B6963" font-family="sans-serif" font-size="13" xml:space="preserve">native-device evidence.</text></g><g transform="translate(640,0)"><rect width="100%" height="100%" fill="#0A0A09"/><text x="16" y="27.73" fill="#6B6963" font-family="sans-serif" font-size="14.3" font-weight="600" xml:space="preserve">DUMBBELL REVERSE LUNGE</text><text x="16" y="50.10" fill="#A9A7A0" font-family="sans-serif" font-size="15.6" xml:space="preserve">Position 3 of 6 · neutral ·</text><text x="16" y="71.16" fill="#A9A7A0" font-family="sans-serif" font-size="15.6" xml:space="preserve">320px · text 130%</text><g transform="translate(16.00,89.43)"><rect width="288.00" height="345.60" fill="#141412"/><rect x="0" y="327.24" width="288.00" height="1" fill="#262623"/><rect x="78.6" y="153.14" width="45" height="15.21" rx="7.6" fill="#6B6963" opacity="0.9" transform="rotate(90 101.1 160.74)"/><rect x="79.5" y="198.62" width="43.2" height="12.44" rx="6.22" fill="#6B6963" opacity="0.9" transform="rotate(90 101.1 204.84)"/><rect x="66.91" y="254.49" width="80.1" height="20.39" rx="10.2" fill="#6B6963" opacity="0.9" transform="rotate(90.21 106.96 264.69)"/><rect x="26.86" y="300.37" width="80.1" height="15.55" rx="7.78" fill="#6B6963" opacity="0.9" transform="rotate(175.13 66.91 308.14)"/><rect x="24.42" y="310.37" width="19.44" height="15.55" rx="7.78" fill="#6B6963" opacity="0.9" transform="rotate(42.77 34.14 318.14)"/><rect x="83.1" y="222.48" width="36" height="7.92" rx="3.96" fill="#6B6963" opacity="0.9" transform="rotate(180 101.1 226.44)"/><rect x="110.82" y="218.16" width="16.56" height="16.56" rx="8.28" fill="#6B6963" opacity="0.9" transform="rotate(90 119.1 226.44)"/><rect x="74.82" y="218.16" width="16.56" height="16.56" rx="8.28" fill="#6B6963" opacity="0.9" transform="rotate(90 83.1 226.44)"/><rect x="101.1" y="136.08" width="42.6" height="4.32" rx="2.16" fill="#6B6963" opacity="1" transform="rotate(180 122.4 138.24)"/><rect x="101.17" y="138.78" width="42.46" height="4.32" rx="2.16" fill="#6B6963" opacity="1" transform="rotate(180 122.4 140.94)"/><rect x="101.24" y="141.48" width="42.33" height="4.32" rx="2.16" fill="#6B6963" opacity="1" transform="rotate(180 122.4 143.64)"/><rect x="101.3" y="144.18" width="42.2" height="4.32" rx="2.16" fill="#6B6963" opacity="1" transform="rotate(180 122.4 146.34)"/><rect x="101.37" y="146.88" width="42.06" height="4.32" rx="2.16" fill="#6B6963" opacity="1" transform="rotate(180 122.4 149.04)"/><rect x="101.44" y="149.58" width="41.93" height="4.32" rx="2.16" fill="#6B6963" opacity="1" transform="rotate(180 122.4 151.74)"/><rect x="101.5" y="152.28" width="41.8" height="4.32" rx="2.16" fill="#6B6963" opacity="1" transform="rotate(180 122.4 154.44)"/><rect x="101.57" y="154.98" width="41.66" height="4.32" rx="2.16" fill="#6B6963" opacity="1" transform="rotate(180 122.4 157.14)"/><rect x="101.63" y="157.68" width="41.53" height="4.32" rx="2.16" fill="#6B6963" opacity="1" transform="rotate(180 122.4 159.84)"/><rect x="101.7" y="160.38" width="41.4" height="4.32" rx="2.16" fill="#6B6963" opacity="1" transform="rotate(180 122.4 162.54)"/><rect x="101.77" y="163.08" width="41.26" height="4.32" rx="2.16" fill="#6B6963" opacity="1" transform="rotate(180 122.4 165.24)"/><rect x="101.83" y="165.78" width="41.13" height="4.32" rx="2.16" fill="#6B6963" opacity="1" transform="rotate(180 122.4 167.94)"/><rect x="101.9" y="168.48" width="41" height="4.32" rx="2.16" fill="#6B6963" opacity="1" transform="rotate(180 122.4 170.64)"/><rect x="101.97" y="171.18" width="40.86" height="4.32" rx="2.16" fill="#6B6963" opacity="1" transform="rotate(180 122.4 173.34)"/><rect x="102.03" y="173.88" width="40.73" height="4.32" rx="2.16" fill="#6B6963" opacity="1" transform="rotate(180 122.4 176.04)"/><rect x="102.1" y="176.58" width="40.6" height="4.32" rx="2.16" fill="#6B6963" opacity="1" transform="rotate(180 122.4 178.74)"/><rect x="102.17" y="179.28" width="40.47" height="4.32" rx="2.16" fill="#6B6963" opacity="1" transform="rotate(180 122.4 181.44)"/><rect x="102.23" y="181.98" width="40.33" height="4.32" rx="2.16" fill="#6B6963" opacity="1" transform="rotate(180 122.4 184.14)"/><rect x="102.3" y="184.68" width="40.2" height="4.32" rx="2.16" fill="#6B6963" opacity="1" transform="rotate(180 122.4 186.84)"/><rect x="102.37" y="187.38" width="40.07" height="4.32" rx="2.16" fill="#6B6963" opacity="1" transform="rotate(180 122.4 189.54)"/><rect x="102.43" y="190.08" width="39.93" height="4.32" rx="2.16" fill="#6B6963" opacity="1" transform="rotate(180 122.4 192.24)"/><rect x="102.5" y="192.78" width="39.8" height="4.32" rx="2.16" fill="#6B6963" opacity="1" transform="rotate(180 122.4 194.94)"/><rect x="102.57" y="195.48" width="39.67" height="4.32" rx="2.16" fill="#6B6963" opacity="1" transform="rotate(180 122.4 197.64)"/><rect x="102.63" y="198.18" width="39.53" height="4.32" rx="2.16" fill="#6B6963" opacity="1" transform="rotate(180 122.4 200.34)"/><rect x="102.7" y="200.88" width="39.4" height="4.32" rx="2.16" fill="#6B6963" opacity="1" transform="rotate(180 122.4 203.04)"/><rect x="102.77" y="203.58" width="39.27" height="4.32" rx="2.16" fill="#6B6963" opacity="1" transform="rotate(180 122.4 205.74)"/><rect x="102.83" y="206.28" width="39.13" height="4.32" rx="2.16" fill="#6B6963" opacity="1" transform="rotate(180 122.4 208.44)"/><rect x="102.9" y="208.98" width="39" height="4.32" rx="2.16" fill="#6B6963" opacity="1" transform="rotate(180 122.4 211.14)"/><rect x="102.97" y="211.68" width="38.87" height="4.32" rx="2.16" fill="#6B6963" opacity="1" transform="rotate(180 122.4 213.84)"/><rect x="103.03" y="214.38" width="38.74" height="4.32" rx="2.16" fill="#6B6963" opacity="1" transform="rotate(180 122.4 216.54)"/><rect x="103.1" y="217.08" width="38.6" height="4.32" rx="2.16" fill="#6B6963" opacity="1" transform="rotate(180 122.4 219.24)"/><rect x="103.17" y="219.78" width="38.47" height="4.32" rx="2.16" fill="#6B6963" opacity="1" transform="rotate(180 122.4 221.94)"/><rect x="103.23" y="222.48" width="38.34" height="4.32" rx="2.16" fill="#6B6963" opacity="1" transform="rotate(180 122.4 224.64)"/><rect x="121.69" y="221.95" width="80.1" height="20.39" rx="10.2" fill="#F7F6F3" opacity="1" transform="rotate(10.8 161.74 232.14)"/><rect x="157.69" y="271.78" width="80.1" height="15.55" rx="7.78" fill="#F7F6F3" opacity="1" transform="rotate(94.79 197.74 279.55)"/><rect x="194.4" y="311.69" width="19.44" height="15.55" rx="7.78" fill="#F7F6F3" opacity="1" transform="rotate(0 204.12 319.46)"/><rect x="121.2" y="153.14" width="45" height="15.21" rx="7.6" fill="#F7F6F3" opacity="1" transform="rotate(90 143.7 160.74)"/><rect x="122.1" y="198.62" width="43.2" height="12.44" rx="6.22" fill="#F7F6F3" opacity="1" transform="rotate(90 143.7 204.84)"/><rect x="105.34" y="116.51" width="34.13" height="12.79" rx="6.39" fill="#F7F6F3" opacity="1" transform="rotate(-90 122.4 122.9)"/><circle cx="122.4" cy="105.84" r="17.82" fill="#141412" stroke="#F7F6F3" stroke-width="9" opacity="1"/><rect x="125.7" y="222.48" width="36" height="7.92" rx="3.96" fill="#F7F6F3" opacity="1" transform="rotate(180 143.7 226.44)"/><rect x="153.42" y="218.16" width="16.56" height="16.56" rx="8.28" fill="#A9A7A0" opacity="1" transform="rotate(90 161.7 226.44)"/><rect x="117.42" y="218.16" width="16.56" height="16.56" rx="8.28" fill="#A9A7A0" opacity="1" transform="rotate(90 125.7 226.44)"/></g><text x="16" y="461.95" fill="#F7F6F3" font-family="sans-serif" font-size="18.2" xml:space="preserve">Lower with the torso</text><text x="16" y="486.52" fill="#F7F6F3" font-family="sans-serif" font-size="18.2" xml:space="preserve">stacked until the back</text><text x="16" y="511.09" fill="#F7F6F3" font-family="sans-serif" font-size="18.2" xml:space="preserve">knee hovers above the</text><text x="16" y="535.66" fill="#F7F6F3" font-family="sans-serif" font-size="18.2" xml:space="preserve">floor.</text><text x="16" y="563.97" fill="#6B6963" font-family="sans-serif" font-size="13" xml:space="preserve">Headless librsvg approximation of</text><text x="16" y="581.52" fill="#6B6963" font-family="sans-serif" font-size="13" xml:space="preserve">production layout primitives — not</text><text x="16" y="599.07" fill="#6B6963" font-family="sans-serif" font-size="13" xml:space="preserve">native-device evidence.</text></g><g transform="translate(960,0)"><rect width="100%" height="100%" fill="#0A0A09"/><text x="16" y="27.73" fill="#6B6963" font-family="sans-serif" font-size="14.3" font-weight="600" xml:space="preserve">DUMBBELL REVERSE LUNGE</text><text x="16" y="50.10" fill="#A9A7A0" font-family="sans-serif" font-size="15.6" xml:space="preserve">Position 4 of 6 · neutral ·</text><text x="16" y="71.16" fill="#A9A7A0" font-family="sans-serif" font-size="15.6" xml:space="preserve">320px · text 130%</text><g transform="translate(16.00,89.43)"><rect width="288.00" height="345.60" fill="#141412"/><rect x="0" y="327.24" width="288.00" height="1" fill="#262623"/><rect x="78.6" y="153.14" width="45" height="15.21" rx="7.6" fill="#6B6963" opacity="0.9" transform="rotate(90 101.1 160.74)"/><rect x="79.5" y="198.62" width="43.2" height="12.44" rx="6.22" fill="#6B6963" opacity="0.9" transform="rotate(90 101.1 204.84)"/><rect x="66.91" y="254.49" width="80.1" height="20.39" rx="10.2" fill="#6B6963" opacity="0.9" transform="rotate(90.21 106.96 264.69)"/><rect x="26.86" y="300.37" width="80.1" height="15.55" rx="7.78" fill="#6B6963" opacity="0.9" transform="rotate(175.13 66.91 308.14)"/><rect x="24.42" y="310.37" width="19.44" height="15.55" rx="7.78" fill="#6B6963" opacity="0.9" transform="rotate(42.77 34.14 318.14)"/><rect x="83.1" y="222.48" width="36" height="7.92" rx="3.96" fill="#6B6963" opacity="0.9" transform="rotate(180 101.1 226.44)"/><rect x="110.82" y="218.16" width="16.56" height="16.56" rx="8.28" fill="#6B6963" opacity="0.9" transform="rotate(90 119.1 226.44)"/><rect x="74.82" y="218.16" width="16.56" height="16.56" rx="8.28" fill="#6B6963" opacity="0.9" transform="rotate(90 83.1 226.44)"/><rect x="101.1" y="136.08" width="42.6" height="4.32" rx="2.16" fill="#6B6963" opacity="1" transform="rotate(180 122.4 138.24)"/><rect x="101.17" y="138.78" width="42.46" height="4.32" rx="2.16" fill="#6B6963" opacity="1" transform="rotate(180 122.4 140.94)"/><rect x="101.24" y="141.48" width="42.33" height="4.32" rx="2.16" fill="#6B6963" opacity="1" transform="rotate(180 122.4 143.64)"/><rect x="101.3" y="144.18" width="42.2" height="4.32" rx="2.16" fill="#6B6963" opacity="1" transform="rotate(180 122.4 146.34)"/><rect x="101.37" y="146.88" width="42.06" height="4.32" rx="2.16" fill="#6B6963" opacity="1" transform="rotate(180 122.4 149.04)"/><rect x="101.44" y="149.58" width="41.93" height="4.32" rx="2.16" fill="#6B6963" opacity="1" transform="rotate(180 122.4 151.74)"/><rect x="101.5" y="152.28" width="41.8" height="4.32" rx="2.16" fill="#6B6963" opacity="1" transform="rotate(180 122.4 154.44)"/><rect x="101.57" y="154.98" width="41.66" height="4.32" rx="2.16" fill="#6B6963" opacity="1" transform="rotate(180 122.4 157.14)"/><rect x="101.63" y="157.68" width="41.53" height="4.32" rx="2.16" fill="#6B6963" opacity="1" transform="rotate(180 122.4 159.84)"/><rect x="101.7" y="160.38" width="41.4" height="4.32" rx="2.16" fill="#6B6963" opacity="1" transform="rotate(180 122.4 162.54)"/><rect x="101.77" y="163.08" width="41.26" height="4.32" rx="2.16" fill="#6B6963" opacity="1" transform="rotate(180 122.4 165.24)"/><rect x="101.83" y="165.78" width="41.13" height="4.32" rx="2.16" fill="#6B6963" opacity="1" transform="rotate(180 122.4 167.94)"/><rect x="101.9" y="168.48" width="41" height="4.32" rx="2.16" fill="#6B6963" opacity="1" transform="rotate(180 122.4 170.64)"/><rect x="101.97" y="171.18" width="40.86" height="4.32" rx="2.16" fill="#6B6963" opacity="1" transform="rotate(180 122.4 173.34)"/><rect x="102.03" y="173.88" width="40.73" height="4.32" rx="2.16" fill="#6B6963" opacity="1" transform="rotate(180 122.4 176.04)"/><rect x="102.1" y="176.58" width="40.6" height="4.32" rx="2.16" fill="#6B6963" opacity="1" transform="rotate(180 122.4 178.74)"/><rect x="102.17" y="179.28" width="40.47" height="4.32" rx="2.16" fill="#6B6963" opacity="1" transform="rotate(180 122.4 181.44)"/><rect x="102.23" y="181.98" width="40.33" height="4.32" rx="2.16" fill="#6B6963" opacity="1" transform="rotate(180 122.4 184.14)"/><rect x="102.3" y="184.68" width="40.2" height="4.32" rx="2.16" fill="#6B6963" opacity="1" transform="rotate(180 122.4 186.84)"/><rect x="102.37" y="187.38" width="40.07" height="4.32" rx="2.16" fill="#6B6963" opacity="1" transform="rotate(180 122.4 189.54)"/><rect x="102.43" y="190.08" width="39.93" height="4.32" rx="2.16" fill="#6B6963" opacity="1" transform="rotate(180 122.4 192.24)"/><rect x="102.5" y="192.78" width="39.8" height="4.32" rx="2.16" fill="#6B6963" opacity="1" transform="rotate(180 122.4 194.94)"/><rect x="102.57" y="195.48" width="39.67" height="4.32" rx="2.16" fill="#6B6963" opacity="1" transform="rotate(180 122.4 197.64)"/><rect x="102.63" y="198.18" width="39.53" height="4.32" rx="2.16" fill="#6B6963" opacity="1" transform="rotate(180 122.4 200.34)"/><rect x="102.7" y="200.88" width="39.4" height="4.32" rx="2.16" fill="#6B6963" opacity="1" transform="rotate(180 122.4 203.04)"/><rect x="102.77" y="203.58" width="39.27" height="4.32" rx="2.16" fill="#6B6963" opacity="1" transform="rotate(180 122.4 205.74)"/><rect x="102.83" y="206.28" width="39.13" height="4.32" rx="2.16" fill="#6B6963" opacity="1" transform="rotate(180 122.4 208.44)"/><rect x="102.9" y="208.98" width="39" height="4.32" rx="2.16" fill="#6B6963" opacity="1" transform="rotate(180 122.4 211.14)"/><rect x="102.97" y="211.68" width="38.87" height="4.32" rx="2.16" fill="#6B6963" opacity="1" transform="rotate(180 122.4 213.84)"/><rect x="103.03" y="214.38" width="38.74" height="4.32" rx="2.16" fill="#6B6963" opacity="1" transform="rotate(180 122.4 216.54)"/><rect x="103.1" y="217.08" width="38.6" height="4.32" rx="2.16" fill="#6B6963" opacity="1" transform="rotate(180 122.4 219.24)"/><rect x="103.17" y="219.78" width="38.47" height="4.32" rx="2.16" fill="#6B6963" opacity="1" transform="rotate(180 122.4 221.94)"/><rect x="103.23" y="222.48" width="38.34" height="4.32" rx="2.16" fill="#6B6963" opacity="1" transform="rotate(180 122.4 224.64)"/><rect x="121.69" y="221.95" width="80.1" height="20.39" rx="10.2" fill="#F7F6F3" opacity="1" transform="rotate(10.8 161.74 232.14)"/><rect x="157.69" y="271.78" width="80.1" height="15.55" rx="7.78" fill="#F7F6F3" opacity="1" transform="rotate(94.79 197.74 279.55)"/><rect x="194.4" y="311.69" width="19.44" height="15.55" rx="7.78" fill="#F7F6F3" opacity="1" transform="rotate(0 204.12 319.46)"/><rect x="121.2" y="153.14" width="45" height="15.21" rx="7.6" fill="#F7F6F3" opacity="1" transform="rotate(90 143.7 160.74)"/><rect x="122.1" y="198.62" width="43.2" height="12.44" rx="6.22" fill="#F7F6F3" opacity="1" transform="rotate(90 143.7 204.84)"/><rect x="105.34" y="116.51" width="34.13" height="12.79" rx="6.39" fill="#F7F6F3" opacity="1" transform="rotate(-90 122.4 122.9)"/><circle cx="122.4" cy="105.84" r="17.82" fill="#141412" stroke="#F7F6F3" stroke-width="9" opacity="1"/><rect x="125.7" y="222.48" width="36" height="7.92" rx="3.96" fill="#F7F6F3" opacity="1" transform="rotate(180 143.7 226.44)"/><rect x="153.42" y="218.16" width="16.56" height="16.56" rx="8.28" fill="#A9A7A0" opacity="1" transform="rotate(90 161.7 226.44)"/><rect x="117.42" y="218.16" width="16.56" height="16.56" rx="8.28" fill="#A9A7A0" opacity="1" transform="rotate(90 125.7 226.44)"/></g><text x="16" y="461.95" fill="#F7F6F3" font-family="sans-serif" font-size="18.2" xml:space="preserve">Keep the front heel</text><text x="16" y="486.52" fill="#F7F6F3" font-family="sans-serif" font-size="18.2" xml:space="preserve">down; the front leg</text><text x="16" y="511.09" fill="#F7F6F3" font-family="sans-serif" font-size="18.2" xml:space="preserve">works while the rear</text><text x="16" y="535.66" fill="#F7F6F3" font-family="sans-serif" font-size="18.2" xml:space="preserve">toes support balance.</text><text x="16" y="563.97" fill="#6B6963" font-family="sans-serif" font-size="13" xml:space="preserve">Headless librsvg approximation of</text><text x="16" y="581.52" fill="#6B6963" font-family="sans-serif" font-size="13" xml:space="preserve">production layout primitives — not</text><text x="16" y="599.07" fill="#6B6963" font-family="sans-serif" font-size="13" xml:space="preserve">native-device evidence.</text></g><g transform="translate(1280,0)"><rect width="100%" height="100%" fill="#0A0A09"/><text x="16" y="27.73" fill="#6B6963" font-family="sans-serif" font-size="14.3" font-weight="600" xml:space="preserve">DUMBBELL REVERSE LUNGE</text><text x="16" y="50.10" fill="#A9A7A0" font-family="sans-serif" font-size="15.6" xml:space="preserve">Position 5 of 6 · neutral ·</text><text x="16" y="71.16" fill="#A9A7A0" font-family="sans-serif" font-size="15.6" xml:space="preserve">320px · text 130%</text><g transform="translate(16.00,89.43)"><rect width="288.00" height="345.60" fill="#141412"/><rect x="0" y="327.24" width="288.00" height="1" fill="#262623"/><rect x="78.6" y="115.7" width="45" height="15.21" rx="7.6" fill="#6B6963" opacity="0.9" transform="rotate(90 101.1 123.3)"/><rect x="79.5" y="161.18" width="43.2" height="12.44" rx="6.22" fill="#6B6963" opacity="0.9" transform="rotate(90 101.1 167.4)"/><rect x="59.96" y="216.42" width="80.1" height="20.39" rx="10.2" fill="#6B6963" opacity="0.9" transform="rotate(100.2 100.01 226.62)"/><rect x="19.91" y="281.01" width="80.1" height="15.55" rx="7.78" fill="#6B6963" opacity="0.9" transform="rotate(145.38 59.96 288.79)"/><rect x="24.42" y="310.37" width="19.44" height="15.55" rx="7.78" fill="#6B6963" opacity="0.9" transform="rotate(42.77 34.14 318.14)"/><rect x="83.1" y="185.04" width="36" height="7.92" rx="3.96" fill="#6B6963" opacity="0.9" transform="rotate(180 101.1 189)"/><rect x="110.82" y="180.72" width="16.56" height="16.56" rx="8.28" fill="#6B6963" opacity="0.9" transform="rotate(90 119.1 189)"/><rect x="74.82" y="180.72" width="16.56" height="16.56" rx="8.28" fill="#6B6963" opacity="0.9" transform="rotate(90 83.1 189)"/><rect x="101.1" y="98.64" width="42.6" height="4.32" rx="2.16" fill="#6B6963" opacity="1" transform="rotate(180 122.4 100.8)"/><rect x="101.17" y="101.34" width="42.46" height="4.32" rx="2.16" fill="#6B6963" opacity="1" transform="rotate(180 122.4 103.5)"/><rect x="101.24" y="104.04" width="42.33" height="4.32" rx="2.16" fill="#6B6963" opacity="1" transform="rotate(180 122.4 106.2)"/><rect x="101.3" y="106.74" width="42.2" height="4.32" rx="2.16" fill="#6B6963" opacity="1" transform="rotate(180 122.4 108.9)"/><rect x="101.37" y="109.44" width="42.06" height="4.32" rx="2.16" fill="#6B6963" opacity="1" transform="rotate(180 122.4 111.6)"/><rect x="101.44" y="112.14" width="41.93" height="4.32" rx="2.16" fill="#6B6963" opacity="1" transform="rotate(180 122.4 114.3)"/><rect x="101.5" y="114.84" width="41.8" height="4.32" rx="2.16" fill="#6B6963" opacity="1" transform="rotate(180 122.4 117)"/><rect x="101.57" y="117.54" width="41.66" height="4.32" rx="2.16" fill="#6B6963" opacity="1" transform="rotate(180 122.4 119.7)"/><rect x="101.63" y="120.24" width="41.53" height="4.32" rx="2.16" fill="#6B6963" opacity="1" transform="rotate(180 122.4 122.4)"/><rect x="101.7" y="122.94" width="41.4" height="4.32" rx="2.16" fill="#6B6963" opacity="1" transform="rotate(180 122.4 125.1)"/><rect x="101.77" y="125.64" width="41.26" height="4.32" rx="2.16" fill="#6B6963" opacity="1" transform="rotate(180 122.4 127.8)"/><rect x="101.83" y="128.34" width="41.13" height="4.32" rx="2.16" fill="#6B6963" opacity="1" transform="rotate(180 122.4 130.5)"/><rect x="101.9" y="131.04" width="41" height="4.32" rx="2.16" fill="#6B6963" opacity="1" transform="rotate(180 122.4 133.2)"/><rect x="101.97" y="133.74" width="40.86" height="4.32" rx="2.16" fill="#6B6963" opacity="1" transform="rotate(180 122.4 135.9)"/><rect x="102.03" y="136.44" width="40.73" height="4.32" rx="2.16" fill="#6B6963" opacity="1" transform="rotate(180 122.4 138.6)"/><rect x="102.1" y="139.14" width="40.6" height="4.32" rx="2.16" fill="#6B6963" opacity="1" transform="rotate(180 122.4 141.3)"/><rect x="102.17" y="141.84" width="40.47" height="4.32" rx="2.16" fill="#6B6963" opacity="1" transform="rotate(180 122.4 144)"/><rect x="102.23" y="144.54" width="40.33" height="4.32" rx="2.16" fill="#6B6963" opacity="1" transform="rotate(180 122.4 146.7)"/><rect x="102.3" y="147.24" width="40.2" height="4.32" rx="2.16" fill="#6B6963" opacity="1" transform="rotate(180 122.4 149.4)"/><rect x="102.37" y="149.94" width="40.07" height="4.32" rx="2.16" fill="#6B6963" opacity="1" transform="rotate(180 122.4 152.1)"/><rect x="102.43" y="152.64" width="39.93" height="4.32" rx="2.16" fill="#6B6963" opacity="1" transform="rotate(180 122.4 154.8)"/><rect x="102.5" y="155.34" width="39.8" height="4.32" rx="2.16" fill="#6B6963" opacity="1" transform="rotate(180 122.4 157.5)"/><rect x="102.57" y="158.04" width="39.67" height="4.32" rx="2.16" fill="#6B6963" opacity="1" transform="rotate(180 122.4 160.2)"/><rect x="102.63" y="160.74" width="39.53" height="4.32" rx="2.16" fill="#6B6963" opacity="1" transform="rotate(180 122.4 162.9)"/><rect x="102.7" y="163.44" width="39.4" height="4.32" rx="2.16" fill="#6B6963" opacity="1" transform="rotate(180 122.4 165.6)"/><rect x="102.77" y="166.14" width="39.27" height="4.32" rx="2.16" fill="#6B6963" opacity="1" transform="rotate(180 122.4 168.3)"/><rect x="102.83" y="168.84" width="39.13" height="4.32" rx="2.16" fill="#6B6963" opacity="1" transform="rotate(180 122.4 171)"/><rect x="102.9" y="171.54" width="39" height="4.32" rx="2.16" fill="#6B6963" opacity="1" transform="rotate(180 122.4 173.7)"/><rect x="102.97" y="174.24" width="38.87" height="4.32" rx="2.16" fill="#6B6963" opacity="1" transform="rotate(180 122.4 176.4)"/><rect x="103.03" y="176.94" width="38.74" height="4.32" rx="2.16" fill="#6B6963" opacity="1" transform="rotate(180 122.4 179.1)"/><rect x="103.1" y="179.64" width="38.6" height="4.32" rx="2.16" fill="#6B6963" opacity="1" transform="rotate(180 122.4 181.8)"/><rect x="103.17" y="182.34" width="38.47" height="4.32" rx="2.16" fill="#6B6963" opacity="1" transform="rotate(180 122.4 184.5)"/><rect x="103.23" y="185.04" width="38.34" height="4.32" rx="2.16" fill="#6B6963" opacity="1" transform="rotate(180 122.4 187.2)"/><rect x="112.35" y="203.54" width="80.1" height="20.39" rx="10.2" fill="#F7F6F3" opacity="1" transform="rotate(41.49 152.4 213.73)"/><rect x="148.35" y="272.09" width="80.1" height="15.55" rx="7.78" fill="#F7F6F3" opacity="1" transform="rotate(81.38 188.4 279.87)"/><rect x="194.4" y="311.69" width="19.44" height="15.55" rx="7.78" fill="#F7F6F3" opacity="1" transform="rotate(0 204.12 319.46)"/><rect x="121.2" y="115.7" width="45" height="15.21" rx="7.6" fill="#F7F6F3" opacity="1" transform="rotate(90 143.7 123.3)"/><rect x="122.1" y="161.18" width="43.2" height="12.44" rx="6.22" fill="#F7F6F3" opacity="1" transform="rotate(90 143.7 167.4)"/><rect x="105.34" y="79.07" width="34.13" height="12.79" rx="6.39" fill="#F7F6F3" opacity="1" transform="rotate(-90 122.4 85.46)"/><circle cx="122.4" cy="68.4" r="17.82" fill="#141412" stroke="#F7F6F3" stroke-width="9" opacity="1"/><rect x="125.7" y="185.04" width="36" height="7.92" rx="3.96" fill="#F7F6F3" opacity="1" transform="rotate(180 143.7 189)"/><rect x="153.42" y="180.72" width="16.56" height="16.56" rx="8.28" fill="#A9A7A0" opacity="1" transform="rotate(90 161.7 189)"/><rect x="117.42" y="180.72" width="16.56" height="16.56" rx="8.28" fill="#A9A7A0" opacity="1" transform="rotate(90 125.7 189)"/></g><text x="16" y="461.95" fill="#F7F6F3" font-family="sans-serif" font-size="18.2" xml:space="preserve">Drive through the whole</text><text x="16" y="486.52" fill="#F7F6F3" font-family="sans-serif" font-size="18.2" xml:space="preserve">front foot to raise the</text><text x="16" y="511.09" fill="#F7F6F3" font-family="sans-serif" font-size="18.2" xml:space="preserve">body under control.</text><text x="16" y="539.39" fill="#6B6963" font-family="sans-serif" font-size="13" xml:space="preserve">Headless librsvg approximation of</text><text x="16" y="556.95" fill="#6B6963" font-family="sans-serif" font-size="13" xml:space="preserve">production layout primitives — not</text><text x="16" y="574.50" fill="#6B6963" font-family="sans-serif" font-size="13" xml:space="preserve">native-device evidence.</text></g><g transform="translate(1600,0)"><rect width="100%" height="100%" fill="#0A0A09"/><text x="16" y="27.73" fill="#6B6963" font-family="sans-serif" font-size="14.3" font-weight="600" xml:space="preserve">DUMBBELL REVERSE LUNGE</text><text x="16" y="50.10" fill="#A9A7A0" font-family="sans-serif" font-size="15.6" xml:space="preserve">Position 6 of 6 · neutral ·</text><text x="16" y="71.16" fill="#A9A7A0" font-family="sans-serif" font-size="15.6" xml:space="preserve">320px · text 130%</text><g transform="translate(16.00,89.43)"><rect width="288.00" height="345.60" fill="#141412"/><rect x="0" y="327.24" width="288.00" height="1" fill="#262623"/><rect x="150.6" y="87.76" width="45" height="15.21" rx="7.6" fill="#6B6963" opacity="0.9" transform="rotate(90 173.1 95.36)"/><rect x="151.5" y="133.24" width="43.2" height="12.44" rx="6.22" fill="#6B6963" opacity="0.9" transform="rotate(90 173.1 139.46)"/><rect x="139.05" y="189.12" width="80.1" height="20.39" rx="10.2" fill="#6B6963" opacity="0.9" transform="rotate(90 179.1 199.31)"/><rect x="139.05" y="271.64" width="80.1" height="15.55" rx="7.78" fill="#6B6963" opacity="0.9" transform="rotate(90 179.1 279.41)"/><rect x="179.1" y="311.69" width="19.44" height="15.55" rx="7.78" fill="#6B6963" opacity="0.9" transform="rotate(0 188.82 319.46)"/><rect x="155.1" y="157.1" width="36" height="7.92" rx="3.96" fill="#6B6963" opacity="0.9" transform="rotate(180 173.1 161.06)"/><rect x="182.82" y="152.78" width="16.56" height="16.56" rx="8.28" fill="#6B6963" opacity="0.9" transform="rotate(90 191.1 161.06)"/><rect x="146.82" y="152.78" width="16.56" height="16.56" rx="8.28" fill="#6B6963" opacity="0.9" transform="rotate(90 155.1 161.06)"/><rect x="173.1" y="70.7" width="42.6" height="4.32" rx="2.16" fill="#6B6963" opacity="1" transform="rotate(180 194.4 72.86)"/><rect x="173.17" y="73.4" width="42.46" height="4.32" rx="2.16" fill="#6B6963" opacity="1" transform="rotate(180 194.4 75.56)"/><rect x="173.24" y="76.1" width="42.33" height="4.32" rx="2.16" fill="#6B6963" opacity="1" transform="rotate(180 194.4 78.26)"/><rect x="173.3" y="78.8" width="42.2" height="4.32" rx="2.16" fill="#6B6963" opacity="1" transform="rotate(180 194.4 80.96)"/><rect x="173.37" y="81.5" width="42.06" height="4.32" rx="2.16" fill="#6B6963" opacity="1" transform="rotate(180 194.4 83.66)"/><rect x="173.44" y="84.2" width="41.93" height="4.32" rx="2.16" fill="#6B6963" opacity="1" transform="rotate(180 194.4 86.36)"/><rect x="173.5" y="86.9" width="41.8" height="4.32" rx="2.16" fill="#6B6963" opacity="1" transform="rotate(180 194.4 89.06)"/><rect x="173.57" y="89.6" width="41.66" height="4.32" rx="2.16" fill="#6B6963" opacity="1" transform="rotate(180 194.4 91.76)"/><rect x="173.63" y="92.3" width="41.53" height="4.32" rx="2.16" fill="#6B6963" opacity="1" transform="rotate(180 194.4 94.46)"/><rect x="173.7" y="95" width="41.4" height="4.32" rx="2.16" fill="#6B6963" opacity="1" transform="rotate(180 194.4 97.16)"/><rect x="173.77" y="97.7" width="41.26" height="4.32" rx="2.16" fill="#6B6963" opacity="1" transform="rotate(180 194.4 99.86)"/><rect x="173.83" y="100.4" width="41.13" height="4.32" rx="2.16" fill="#6B6963" opacity="1" transform="rotate(180 194.4 102.56)"/><rect x="173.9" y="103.1" width="41" height="4.32" rx="2.16" fill="#6B6963" opacity="1" transform="rotate(180 194.4 105.26)"/><rect x="173.97" y="105.8" width="40.86" height="4.32" rx="2.16" fill="#6B6963" opacity="1" transform="rotate(180 194.4 107.96)"/><rect x="174.03" y="108.5" width="40.73" height="4.32" rx="2.16" fill="#6B6963" opacity="1" transform="rotate(180 194.4 110.66)"/><rect x="174.1" y="111.2" width="40.6" height="4.32" rx="2.16" fill="#6B6963" opacity="1" transform="rotate(180 194.4 113.36)"/><rect x="174.17" y="113.9" width="40.47" height="4.32" rx="2.16" fill="#6B6963" opacity="1" transform="rotate(180 194.4 116.06)"/><rect x="174.23" y="116.6" width="40.33" height="4.32" rx="2.16" fill="#6B6963" opacity="1" transform="rotate(180 194.4 118.76)"/><rect x="174.3" y="119.3" width="40.2" height="4.32" rx="2.16" fill="#6B6963" opacity="1" transform="rotate(180 194.4 121.46)"/><rect x="174.37" y="122" width="40.07" height="4.32" rx="2.16" fill="#6B6963" opacity="1" transform="rotate(180 194.4 124.16)"/><rect x="174.43" y="124.7" width="39.93" height="4.32" rx="2.16" fill="#6B6963" opacity="1" transform="rotate(180 194.4 126.86)"/><rect x="174.5" y="127.4" width="39.8" height="4.32" rx="2.16" fill="#6B6963" opacity="1" transform="rotate(180 194.4 129.56)"/><rect x="174.57" y="130.1" width="39.67" height="4.32" rx="2.16" fill="#6B6963" opacity="1" transform="rotate(180 194.4 132.26)"/><rect x="174.63" y="132.8" width="39.53" height="4.32" rx="2.16" fill="#6B6963" opacity="1" transform="rotate(180 194.4 134.96)"/><rect x="174.7" y="135.5" width="39.4" height="4.32" rx="2.16" fill="#6B6963" opacity="1" transform="rotate(180 194.4 137.66)"/><rect x="174.77" y="138.2" width="39.27" height="4.32" rx="2.16" fill="#6B6963" opacity="1" transform="rotate(180 194.4 140.36)"/><rect x="174.83" y="140.9" width="39.13" height="4.32" rx="2.16" fill="#6B6963" opacity="1" transform="rotate(180 194.4 143.06)"/><rect x="174.9" y="143.6" width="39" height="4.32" rx="2.16" fill="#6B6963" opacity="1" transform="rotate(180 194.4 145.76)"/><rect x="174.97" y="146.3" width="38.87" height="4.32" rx="2.16" fill="#6B6963" opacity="1" transform="rotate(180 194.4 148.46)"/><rect x="175.03" y="149" width="38.74" height="4.32" rx="2.16" fill="#6B6963" opacity="1" transform="rotate(180 194.4 151.16)"/><rect x="175.1" y="151.7" width="38.6" height="4.32" rx="2.16" fill="#6B6963" opacity="1" transform="rotate(180 194.4 153.86)"/><rect x="175.17" y="154.4" width="38.47" height="4.32" rx="2.16" fill="#6B6963" opacity="1" transform="rotate(180 194.4 156.56)"/><rect x="175.23" y="157.1" width="38.34" height="4.32" rx="2.16" fill="#6B6963" opacity="1" transform="rotate(180 194.4 159.26)"/><rect x="154.35" y="189.12" width="80.1" height="20.39" rx="10.2" fill="#F7F6F3" opacity="1" transform="rotate(90 194.4 199.31)"/><rect x="154.35" y="271.64" width="80.1" height="15.55" rx="7.78" fill="#F7F6F3" opacity="1" transform="rotate(90 194.4 279.41)"/><rect x="194.4" y="311.69" width="19.44" height="15.55" rx="7.78" fill="#F7F6F3" opacity="1" transform="rotate(0 204.12 319.46)"/><rect x="193.2" y="87.76" width="45" height="15.21" rx="7.6" fill="#F7F6F3" opacity="1" transform="rotate(90 215.7 95.36)"/><rect x="194.1" y="133.24" width="43.2" height="12.44" rx="6.22" fill="#F7F6F3" opacity="1" transform="rotate(90 215.7 139.46)"/><rect x="177.34" y="51.13" width="34.13" height="12.79" rx="6.39" fill="#F7F6F3" opacity="1" transform="rotate(-90 194.4 57.53)"/><circle cx="194.4" cy="40.46" r="17.82" fill="#141412" stroke="#F7F6F3" stroke-width="9" opacity="1"/><rect x="197.7" y="157.1" width="36" height="7.92" rx="3.96" fill="#F7F6F3" opacity="1" transform="rotate(180 215.7 161.06)"/><rect x="225.42" y="152.78" width="16.56" height="16.56" rx="8.28" fill="#A9A7A0" opacity="1" transform="rotate(90 233.7 161.06)"/><rect x="189.42" y="152.78" width="16.56" height="16.56" rx="8.28" fill="#A9A7A0" opacity="1" transform="rotate(90 197.7 161.06)"/></g><text x="16" y="461.95" fill="#F7F6F3" font-family="sans-serif" font-size="18.2" xml:space="preserve">Bring the rear foot back</text><text x="16" y="486.52" fill="#F7F6F3" font-family="sans-serif" font-size="18.2" xml:space="preserve">beside the planted front</text><text x="16" y="511.09" fill="#F7F6F3" font-family="sans-serif" font-size="18.2" xml:space="preserve">foot and stand tall</text><text x="16" y="535.66" fill="#F7F6F3" font-family="sans-serif" font-size="18.2" xml:space="preserve">again.</text><text x="16" y="563.97" fill="#6B6963" font-family="sans-serif" font-size="13" xml:space="preserve">Headless librsvg approximation of</text><text x="16" y="581.52" fill="#6B6963" font-family="sans-serif" font-size="13" xml:space="preserve">production layout primitives — not</text><text x="16" y="599.07" fill="#6B6963" font-family="sans-serif" font-size="13" xml:space="preserve">native-device evidence.</text></g></svg>